<svg xmlns="http://www.w3.org/2000/svg" xmlns:xlink="http://www.w3.org/1999/xlink" width="409" zoomAndPan="magnify" viewBox="0 0 306.75 52.499999" height="70" preserveAspectRatio="xMidYMid meet" version="1.2"><defs><clipPath id="0560566e27"><path d="M 2 11 L 31.78125 11 L 31.78125 41 L 2 41 Z M 2 11 "/></clipPath></defs><g id="09d3b549c1"><g style="fill:#4285f4;fill-opacity:1;"><g transform="translate(35.520535, 36.022465)"><path style="stroke:none" d="M 13.390625 0.421875 C 9.984375 0.421875 7.175781 -0.6875 4.96875 -2.90625 C 2.757812 -5.125 1.65625 -7.945312 1.65625 -11.375 C 1.65625 -14.769531 2.753906 -17.582031 4.953125 -19.8125 C 7.148438 -22.039062 9.925781 -23.15625 13.28125 -23.15625 C 15.925781 -23.15625 18.265625 -22.457031 20.296875 -21.0625 C 22.335938 -19.664062 23.710938 -17.8125 24.421875 -15.5 L 20.203125 -15.5 C 19.554688 -16.75 18.640625 -17.71875 17.453125 -18.40625 C 16.273438 -19.101562 14.929688 -19.453125 13.421875 -19.453125 C 11.117188 -19.453125 9.238281 -18.695312 7.78125 -17.1875 C 6.320312 -15.6875 5.59375 -13.742188 5.59375 -11.359375 C 5.59375 -8.984375 6.320312 -7.039062 7.78125 -5.53125 C 9.238281 -4.03125 11.128906 -3.28125 13.453125 -3.28125 C 15.398438 -3.28125 17.046875 -3.820312 18.390625 -4.90625 C 19.734375 -5.988281 20.566406 -7.441406 20.890625 -9.265625 L 12.5 -9.265625 L 12.5 -12.609375 L 25.046875 -12.609375 C 25.191406 -8.796875 24.175781 -5.671875 22 -3.234375 C 19.832031 -0.796875 16.960938 0.421875 13.390625 0.421875 Z M 13.390625 0.421875 "/></g></g><g style="fill:#4285f4;fill-opacity:1;"><g transform="translate(60.917342, 36.022465)"><path style="stroke:none" d="M 10.359375 0.421875 C 7.742188 0.421875 5.613281 -0.40625 3.96875 -2.0625 C 2.320312 -3.71875 1.5 -5.851562 1.5 -8.46875 C 1.5 -11.09375 2.332031 -13.234375 4 -14.890625 C 5.664062 -16.546875 7.804688 -17.375 10.421875 -17.375 C 13.191406 -17.375 15.394531 -16.429688 17.03125 -14.546875 C 18.664062 -12.671875 19.421875 -10.226562 19.296875 -7.21875 L 5.234375 -7.21875 C 5.472656 -5.851562 6.050781 -4.773438 6.96875 -3.984375 C 7.882812 -3.191406 9.035156 -2.796875 10.421875 -2.796875 C 12.421875 -2.796875 13.925781 -3.550781 14.9375 -5.0625 L 18.9375 -5.0625 C 18.21875 -3.351562 17.097656 -2.007812 15.578125 -1.03125 C 14.066406 -0.0625 12.328125 0.421875 10.359375 0.421875 Z M 5.265625 -10 L 15.65625 -10 C 15.351562 -11.300781 14.734375 -12.316406 13.796875 -13.046875 C 12.867188 -13.785156 11.742188 -14.15625 10.421875 -14.15625 C 9.109375 -14.15625 7.984375 -13.78125 7.046875 -13.03125 C 6.117188 -12.289062 5.523438 -11.28125 5.265625 -10 Z M 5.265625 -10 "/></g></g><g style="fill:#4285f4;fill-opacity:1;"><g transform="translate(80.403357, 36.022465)"><path style="stroke:none" d="M 10.5 0 C 8.5 0 6.945312 -0.546875 5.84375 -1.640625 C 4.738281 -2.734375 4.1875 -4.273438 4.1875 -6.265625 L 4.1875 -13.734375 L 0.78125 -13.734375 L 0.78125 -16.953125 L 2.28125 -16.953125 C 3.144531 -16.953125 3.742188 -17.09375 4.078125 -17.375 C 4.410156 -17.65625 4.632812 -18.207031 4.75 -19.03125 L 5.03125 -21.25 L 7.890625 -21.25 L 7.890625 -16.953125 L 13 -16.953125 L 13 -13.734375 L 7.890625 -13.734375 L 7.890625 -6.625 C 7.890625 -4.476562 8.898438 -3.40625 10.921875 -3.40625 L 13.21875 -3.40625 L 13.21875 0 Z M 10.5 0 "/></g></g><g style="fill:#4285f4;fill-opacity:1;"><g transform="translate(93.881153, 36.022465)"><path style="stroke:none" d="M 3.015625 0 L 3.015625 -22.734375 L 6.890625 -22.734375 L 6.890625 0 Z M 3.015625 0 "/></g></g><g style="fill:#4285f4;fill-opacity:1;"><g transform="translate(102.552378, 36.022465)"><path style="stroke:none" d="M 2.765625 0 L 2.765625 -16.953125 L 5.65625 -16.953125 L 6.046875 -14.90625 C 7.472656 -16.550781 9.398438 -17.375 11.828125 -17.375 C 14.035156 -17.375 15.773438 -16.671875 17.046875 -15.265625 C 18.328125 -13.859375 18.96875 -11.953125 18.96875 -9.546875 L 18.96875 0 L 15.265625 0 L 15.265625 -9.1875 C 15.265625 -10.664062 14.894531 -11.835938 14.15625 -12.703125 C 13.425781 -13.566406 12.421875 -14 11.140625 -14 C 9.753906 -14 8.628906 -13.503906 7.765625 -12.515625 C 6.898438 -11.535156 6.46875 -10.234375 6.46875 -8.609375 L 6.46875 0 Z M 2.765625 0 "/></g></g><g style="fill:#4285f4;fill-opacity:1;"><g transform="translate(122.687929, 36.022465)"><path style="stroke:none" d="M 10.109375 0.421875 C 7.609375 0.421875 5.546875 -0.410156 3.921875 -2.078125 C 2.304688 -3.742188 1.5 -5.878906 1.5 -8.484375 C 1.5 -11.054688 2.304688 -13.179688 3.921875 -14.859375 C 5.546875 -16.535156 7.609375 -17.375 10.109375 -17.375 C 12.484375 -17.375 14.460938 -16.617188 16.046875 -15.109375 L 16.046875 -24.03125 L 19.75 -24.03125 L 19.75 0 L 16.828125 0 L 16.375 -2.171875 C 14.75 -0.441406 12.660156 0.421875 10.109375 0.421875 Z M 6.703125 -12.453125 C 5.679688 -11.429688 5.171875 -10.109375 5.171875 -8.484375 C 5.171875 -6.859375 5.679688 -5.53125 6.703125 -4.5 C 7.734375 -3.46875 9.0625 -2.953125 10.6875 -2.953125 C 12.289062 -2.953125 13.601562 -3.46875 14.625 -4.5 C 15.65625 -5.53125 16.171875 -6.859375 16.171875 -8.484375 C 16.171875 -10.109375 15.65625 -11.429688 14.625 -12.453125 C 13.601562 -13.484375 12.289062 -14 10.6875 -14 C 9.0625 -14 7.734375 -13.484375 6.703125 -12.453125 Z M 6.703125 -12.453125 "/></g></g><g style="fill:#4285f4;fill-opacity:1;"><g transform="translate(143.9277, 36.022465)"><path style="stroke:none" d="M 10.359375 0.421875 C 7.742188 0.421875 5.613281 -0.40625 3.96875 -2.0625 C 2.320312 -3.71875 1.5 -5.851562 1.5 -8.46875 C 1.5 -11.09375 2.332031 -13.234375 4 -14.890625 C 5.664062 -16.546875 7.804688 -17.375 10.421875 -17.375 C 13.191406 -17.375 15.394531 -16.429688 17.03125 -14.546875 C 18.664062 -12.671875 19.421875 -10.226562 19.296875 -7.21875 L 5.234375 -7.21875 C 5.472656 -5.851562 6.050781 -4.773438 6.96875 -3.984375 C 7.882812 -3.191406 9.035156 -2.796875 10.421875 -2.796875 C 12.421875 -2.796875 13.925781 -3.550781 14.9375 -5.0625 L 18.9375 -5.0625 C 18.21875 -3.351562 17.097656 -2.007812 15.578125 -1.03125 C 14.066406 -0.0625 12.328125 0.421875 10.359375 0.421875 Z M 5.265625 -10 L 15.65625 -10 C 15.351562 -11.300781 14.734375 -12.316406 13.796875 -13.046875 C 12.867188 -13.785156 11.742188 -14.15625 10.421875 -14.15625 C 9.109375 -14.15625 7.984375 -13.78125 7.046875 -13.03125 C 6.117188 -12.289062 5.523438 -11.28125 5.265625 -10 Z M 5.265625 -10 "/></g></g><g style="fill:#4285f4;fill-opacity:1;"><g transform="translate(163.413715, 36.022465)"><path style="stroke:none" d="M 0.9375 0 L 7.25 -8.609375 L 1.234375 -16.953125 L 5.5625 -16.953125 L 7.671875 -13.9375 L 9.609375 -11.171875 L 11.5625 -13.9375 L 13.671875 -16.953125 L 18 -16.953125 L 11.984375 -8.609375 L 18.28125 0 L 13.90625 0 L 11.5625 -3.21875 L 9.609375 -5.9375 L 7.671875 -3.21875 L 5.328125 0 Z M 0.9375 0 "/></g></g><g style="fill:#4285f4;fill-opacity:1;"><g transform="translate(181.405794, 36.022465)"><path style="stroke:none" d="M 10.359375 0.421875 C 7.742188 0.421875 5.613281 -0.40625 3.96875 -2.0625 C 2.320312 -3.71875 1.5 -5.851562 1.5 -8.46875 C 1.5 -11.09375 2.332031 -13.234375 4 -14.890625 C 5.664062 -16.546875 7.804688 -17.375 10.421875 -17.375 C 13.191406 -17.375 15.394531 -16.429688 17.03125 -14.546875 C 18.664062 -12.671875 19.421875 -10.226562 19.296875 -7.21875 L 5.234375 -7.21875 C 5.472656 -5.851562 6.050781 -4.773438 6.96875 -3.984375 C 7.882812 -3.191406 9.035156 -2.796875 10.421875 -2.796875 C 12.421875 -2.796875 13.925781 -3.550781 14.9375 -5.0625 L 18.9375 -5.0625 C 18.21875 -3.351562 17.097656 -2.007812 15.578125 -1.03125 C 14.066406 -0.0625 12.328125 0.421875 10.359375 0.421875 Z M 5.265625 -10 L 15.65625 -10 C 15.351562 -11.300781 14.734375 -12.316406 13.796875 -13.046875 C 12.867188 -13.785156 11.742188 -14.15625 10.421875 -14.15625 C 9.109375 -14.15625 7.984375 -13.78125 7.046875 -13.03125 C 6.117188 -12.289062 5.523438 -11.28125 5.265625 -10 Z M 5.265625 -10 "/></g></g><g style="fill:#4285f4;fill-opacity:1;"><g transform="translate(200.891809, 36.022465)"><path style="stroke:none" d="M 10.109375 0.421875 C 7.609375 0.421875 5.546875 -0.410156 3.921875 -2.078125 C 2.304688 -3.742188 1.5 -5.878906 1.5 -8.484375 C 1.5 -11.054688 2.304688 -13.179688 3.921875 -14.859375 C 5.546875 -16.535156 7.609375 -17.375 10.109375 -17.375 C 12.484375 -17.375 14.460938 -16.617188 16.046875 -15.109375 L 16.046875 -24.03125 L 19.75 -24.03125 L 19.75 0 L 16.828125 0 L 16.375 -2.171875 C 14.75 -0.441406 12.660156 0.421875 10.109375 0.421875 Z M 6.703125 -12.453125 C 5.679688 -11.429688 5.171875 -10.109375 5.171875 -8.484375 C 5.171875 -6.859375 5.679688 -5.53125 6.703125 -4.5 C 7.734375 -3.46875 9.0625 -2.953125 10.6875 -2.953125 C 12.289062 -2.953125 13.601562 -3.46875 14.625 -4.5 C 15.65625 -5.53125 16.171875 -6.859375 16.171875 -8.484375 C 16.171875 -10.109375 15.65625 -11.429688 14.625 -12.453125 C 13.601562 -13.484375 12.289062 -14 10.6875 -14 C 9.0625 -14 7.734375 -13.484375 6.703125 -12.453125 Z M 6.703125 -12.453125 "/></g></g><g style="fill:#4285f4;fill-opacity:1;"><g transform="translate(222.13158, 36.022465)"><path style="stroke:none" d="M 3.015625 0 L 3.015625 -22.734375 L 6.5 -22.734375 L 17.859375 -6.6875 L 17.859375 -22.734375 L 21.703125 -22.734375 L 21.703125 0 L 18.21875 0 L 6.859375 -16.109375 L 6.859375 0 Z M 3.015625 0 "/></g></g><g style="fill:#4285f4;fill-opacity:1;"><g transform="translate(245.61225, 36.022465)"><path style="stroke:none" d="M 10.6875 0.421875 C 7.976562 0.421875 5.769531 -0.40625 4.0625 -2.0625 C 2.351562 -3.71875 1.5 -5.859375 1.5 -8.484375 C 1.5 -11.078125 2.359375 -13.207031 4.078125 -14.875 C 5.796875 -16.539062 8 -17.375 10.6875 -17.375 C 13.375 -17.375 15.570312 -16.539062 17.28125 -14.875 C 18.988281 -13.207031 19.84375 -11.078125 19.84375 -8.484375 C 19.84375 -5.859375 18.988281 -3.71875 17.28125 -2.0625 C 15.570312 -0.40625 13.375 0.421875 10.6875 0.421875 Z M 6.703125 -12.453125 C 5.679688 -11.429688 5.171875 -10.109375 5.171875 -8.484375 C 5.171875 -6.859375 5.679688 -5.53125 6.703125 -4.5 C 7.734375 -3.46875 9.0625 -2.953125 10.6875 -2.953125 C 12.289062 -2.953125 13.601562 -3.46875 14.625 -4.5 C 15.65625 -5.53125 16.171875 -6.859375 16.171875 -8.484375 C 16.171875 -10.109375 15.65625 -11.429688 14.625 -12.453125 C 13.601562 -13.484375 12.289062 -14 10.6875 -14 C 9.0625 -14 7.734375 -13.484375 6.703125 -12.453125 Z M 6.703125 -12.453125 "/></g></g><g style="fill:#4285f4;fill-opacity:1;"><g transform="translate(265.715341, 36.022465)"><path style="stroke:none" d="M 6.5625 0 L 0.421875 -16.953125 L 4.359375 -16.953125 L 8.40625 -5.296875 L 12.828125 -16.953125 L 16.046875 -16.953125 L 18.671875 -10.0625 L 20.5 -5.296875 L 22.15625 -10.0625 L 24.59375 -16.953125 L 28.484375 -16.953125 L 22.375 0 L 18.875 0 L 16.4375 -6.359375 L 14.453125 -11.6875 L 12.46875 -6.359375 L 10.03125 0 Z M 6.5625 0 "/></g></g><g clip-rule="nonzero" clip-path="url(#0560566e27)"><path style=" stroke:none;fill-rule:nonzero;fill:#34a853;fill-opacity:1;" d="M 31.664062 38.582031 L 23.601562 30.519531 C 27.0625 25.921875 26.71875 19.332031 22.535156 15.140625 C 17.953125 10.558594 10.492188 10.558594 5.910156 15.140625 C 1.328125 19.722656 1.328125 27.183594 5.910156 31.765625 C 8.128906 33.984375 11.082031 35.210938 14.226562 35.210938 C 16.808594 35.210938 19.265625 34.371094 21.289062 32.839844 L 29.351562 40.902344 Z M 8.222656 29.445312 C 4.917969 26.140625 4.917969 20.761719 8.222656 17.460938 C 9.871094 15.808594 12.039062 14.980469 14.207031 14.980469 C 16.375 14.980469 18.542969 15.808594 20.203125 17.460938 C 23.507812 20.761719 23.507812 26.140625 20.203125 29.445312 C 18.605469 31.042969 16.476562 31.925781 14.207031 31.925781 C 11.9375 31.925781 9.820312 31.042969 8.222656 29.445312 Z M 8.222656 29.445312 "/></g></g></svg>